<?xml version="1.0" encoding="UTF-8" standalone="no"?>
<!-- Created with Inkscape (http://www.inkscape.org/) -->

<svg
   xmlns:dc="http://purl.org/dc/elements/1.1/"
   xmlns:cc="http://creativecommons.org/ns#"
   xmlns:rdf="http://www.w3.org/1999/02/22-rdf-syntax-ns#"
   xmlns:svg="http://www.w3.org/2000/svg"
   xmlns="http://www.w3.org/2000/svg"
   xmlns:xlink="http://www.w3.org/1999/xlink"
   xmlns:sodipodi="http://sodipodi.sourceforge.net/DTD/sodipodi-0.dtd"
   xmlns:inkscape="http://www.inkscape.org/namespaces/inkscape"
   width="744.09448819"
   height="1052.3622047"
   id="svg2"
   version="1.1"
   inkscape:version="0.48.4 r9939"
   sodipodi:docname="icons.svg"
   inkscape:export-filename="/home/maks/Projects/Atlantis/artwork/icons.png"
   inkscape:export-xdpi="59.921864"
   inkscape:export-ydpi="59.921864">
  <defs
     id="defs4">
    <linearGradient
       id="linearGradient3982">
      <stop
         style="stop-color:#e1e9ff;stop-opacity:1;"
         offset="0"
         id="stop3984" />
      <stop
         id="stop3990"
         offset="0.75"
         style="stop-color:#4171ff;stop-opacity:1;" />
      <stop
         style="stop-color:#4171ff;stop-opacity:0;"
         offset="1"
         id="stop3986" />
    </linearGradient>
    <radialGradient
       inkscape:collect="always"
       xlink:href="#linearGradient3982"
       id="radialGradient3988"
       cx="320"
       cy="796.36218"
       fx="320"
       fy="796.36218"
       r="48"
       gradientUnits="userSpaceOnUse" />
    <radialGradient
       inkscape:collect="always"
       xlink:href="#linearGradient3982-4"
       id="radialGradient3988-2"
       cx="320"
       cy="796.36218"
       fx="320"
       fy="796.36218"
       r="48"
       gradientUnits="userSpaceOnUse" />
    <linearGradient
       id="linearGradient3982-4">
      <stop
         style="stop-color:#00ff00;stop-opacity:1;"
         offset="0"
         id="stop3984-7" />
      <stop
         id="stop3990-6"
         offset="0.75"
         style="stop-color:#0040ff;stop-opacity:1;" />
      <stop
         style="stop-color:#0040ff;stop-opacity:0;"
         offset="1"
         id="stop3986-3" />
    </linearGradient>
    <radialGradient
       r="48"
       fy="796.36218"
       fx="320"
       cy="796.36218"
       cx="320"
       gradientUnits="userSpaceOnUse"
       id="radialGradient4008"
       xlink:href="#linearGradient3982-4"
       inkscape:collect="always" />
    <radialGradient
       inkscape:collect="always"
       xlink:href="#linearGradient3982-2"
       id="radialGradient3988-9"
       cx="320"
       cy="796.36218"
       fx="320"
       fy="796.36218"
       r="48"
       gradientUnits="userSpaceOnUse" />
    <linearGradient
       id="linearGradient3982-2">
      <stop
         style="stop-color:#f0ffe1;stop-opacity:1;"
         offset="0"
         id="stop3984-74" />
      <stop
         id="stop3990-2"
         offset="0.75"
         style="stop-color:#9fff41;stop-opacity:1;" />
      <stop
         style="stop-color:#9fff41;stop-opacity:0;"
         offset="1"
         id="stop3986-7" />
    </linearGradient>
    <radialGradient
       r="48"
       fy="796.36218"
       fx="320"
       cy="796.36218"
       cx="320"
       gradientUnits="userSpaceOnUse"
       id="radialGradient4045"
       xlink:href="#linearGradient3982-2"
       inkscape:collect="always" />
    <radialGradient
       inkscape:collect="always"
       xlink:href="#linearGradient3982-9"
       id="radialGradient3988-95"
       cx="320"
       cy="796.36218"
       fx="320"
       fy="796.36218"
       r="48"
       gradientUnits="userSpaceOnUse" />
    <linearGradient
       id="linearGradient3982-9">
      <stop
         style="stop-color:#ffe1e1;stop-opacity:1;"
         offset="0"
         id="stop3984-746" />
      <stop
         id="stop3990-8"
         offset="0.75"
         style="stop-color:#ff4141;stop-opacity:1;" />
      <stop
         style="stop-color:#ff4141;stop-opacity:0;"
         offset="1"
         id="stop3986-0" />
    </linearGradient>
    <radialGradient
       r="48"
       fy="796.36218"
       fx="320"
       cy="796.36218"
       cx="320"
       gradientUnits="userSpaceOnUse"
       id="radialGradient4082"
       xlink:href="#linearGradient3982-9"
       inkscape:collect="always" />
    <linearGradient
       id="linearGradient3982-1">
      <stop
         style="stop-color:#e1e9ff;stop-opacity:1;"
         offset="0"
         id="stop3984-8" />
      <stop
         id="stop3990-7"
         offset="0.75"
         style="stop-color:#4171ff;stop-opacity:1;" />
      <stop
         style="stop-color:#4171ff;stop-opacity:0;"
         offset="1"
         id="stop3986-5" />
    </linearGradient>
    <linearGradient
       id="linearGradient3982-2-6">
      <stop
         style="stop-color:#f0ffe1;stop-opacity:1;"
         offset="0"
         id="stop3984-74-2" />
      <stop
         id="stop3990-2-5"
         offset="0.75"
         style="stop-color:#9fff41;stop-opacity:1;" />
      <stop
         style="stop-color:#9fff41;stop-opacity:0;"
         offset="1"
         id="stop3986-7-7" />
    </linearGradient>
    <linearGradient
       id="linearGradient3982-9-0">
      <stop
         style="stop-color:#ffe1e1;stop-opacity:1;"
         offset="0"
         id="stop3984-746-7" />
      <stop
         id="stop3990-8-3"
         offset="0.75"
         style="stop-color:#ff4141;stop-opacity:1;" />
      <stop
         style="stop-color:#ff4141;stop-opacity:0;"
         offset="1"
         id="stop3986-0-2" />
    </linearGradient>
    <radialGradient
       inkscape:collect="always"
       xlink:href="#linearGradient3982-9-0"
       id="radialGradient3434"
       gradientUnits="userSpaceOnUse"
       cx="320"
       cy="796.36218"
       fx="320"
       fy="796.36218"
       r="48" />
    <radialGradient
       inkscape:collect="always"
       xlink:href="#linearGradient3982-2-6"
       id="radialGradient3436"
       gradientUnits="userSpaceOnUse"
       cx="320"
       cy="796.36218"
       fx="320"
       fy="796.36218"
       r="48" />
    <radialGradient
       inkscape:collect="always"
       xlink:href="#linearGradient3982-1"
       id="radialGradient3438"
       gradientUnits="userSpaceOnUse"
       cx="320"
       cy="796.36218"
       fx="320"
       fy="796.36218"
       r="48" />
    <linearGradient
       id="linearGradient3982-9-0-9">
      <stop
         style="stop-color:#ffe1e1;stop-opacity:1;"
         offset="0"
         id="stop3984-746-7-4" />
      <stop
         id="stop3990-8-3-2"
         offset="0.75"
         style="stop-color:#ff4141;stop-opacity:1;" />
      <stop
         style="stop-color:#ff4141;stop-opacity:0;"
         offset="1"
         id="stop3986-0-2-6" />
    </linearGradient>
    <linearGradient
       id="linearGradient3982-2-6-7">
      <stop
         style="stop-color:#f0ffe1;stop-opacity:1;"
         offset="0"
         id="stop3984-74-2-5" />
      <stop
         id="stop3990-2-5-7"
         offset="0.75"
         style="stop-color:#9fff41;stop-opacity:1;" />
      <stop
         style="stop-color:#9fff41;stop-opacity:0;"
         offset="1"
         id="stop3986-7-7-9" />
    </linearGradient>
    <linearGradient
       id="linearGradient3982-1-3">
      <stop
         style="stop-color:#e1e9ff;stop-opacity:1;"
         offset="0"
         id="stop3984-8-2" />
      <stop
         id="stop3990-7-0"
         offset="0.75"
         style="stop-color:#4171ff;stop-opacity:1;" />
      <stop
         style="stop-color:#4171ff;stop-opacity:0;"
         offset="1"
         id="stop3986-5-3" />
    </linearGradient>
  </defs>
  <sodipodi:namedview
     id="base"
     pagecolor="#ffffff"
     bordercolor="#666666"
     borderopacity="1.0"
     inkscape:pageopacity="0.0"
     inkscape:pageshadow="2"
     inkscape:zoom="1"
     inkscape:cx="521.87249"
     inkscape:cy="326.67306"
     inkscape:document-units="px"
     inkscape:current-layer="layer2"
     showgrid="true"
     showborder="false"
     inkscape:window-width="1680"
     inkscape:window-height="1028"
     inkscape:window-x="0"
     inkscape:window-y="0"
     inkscape:window-maximized="1">
    <inkscape:grid
       type="xygrid"
       id="grid2985"
       empspacing="8"
       visible="true"
       enabled="true"
       snapvisiblegridlinesonly="true"
       spacingx="2px"
       spacingy="2px" />
  </sodipodi:namedview>
  <metadata
     id="metadata7">
    <rdf:RDF>
      <cc:Work
         rdf:about="">
        <dc:format>image/svg+xml</dc:format>
        <dc:type
           rdf:resource="http://purl.org/dc/dcmitype/StillImage" />
        <dc:title></dc:title>
      </cc:Work>
    </rdf:RDF>
  </metadata>
  <g
     inkscape:groupmode="layer"
     id="layer2"
     inkscape:label="Layer"
     style="display:none">
    <rect
       style="opacity:0.98000004;fill:#ff00ff;fill-opacity:1;stroke:none;display:inline"
       id="rect4500-16"
       width="96"
       height="96"
       x="80.004471"
       y="604.34943"
       inkscape:export-filename="/home/maks/Projects/Atlantis/html/icons/reset1.png"
       inkscape:export-xdpi="120"
       inkscape:export-ydpi="120" />
    <rect
       style="fill:#ff00ff;fill-opacity:1;stroke:none;display:inline"
       id="rect4500-1-9"
       width="96"
       height="96"
       x="272.00446"
       y="604.33661"
       inkscape:export-filename="/home/maks/Projects/Atlantis/html/icons/move1.png"
       inkscape:export-xdpi="120"
       inkscape:export-ydpi="120" />
    <rect
       style="fill:#ff00ff;fill-opacity:1;stroke:none;display:inline"
       id="rect4500-1-4-7"
       width="96"
       height="96"
       x="464.00446"
       y="604.33661"
       inkscape:export-filename="/home/maks/Projects/Atlantis/html/icons/explode1.png"
       inkscape:export-xdpi="120"
       inkscape:export-ydpi="120" />
    <rect
       style="fill:#ff00ff;fill-opacity:1;stroke:none;display:inline"
       id="rect4500-1-1-6"
       width="96"
       height="96"
       x="656.00446"
       y="604.33661"
       inkscape:export-filename="/home/maks/Projects/Atlantis/html/icons/grow1.png"
       inkscape:export-xdpi="120"
       inkscape:export-ydpi="120" />
    <rect
       style="fill:#ff00ff;fill-opacity:1;stroke:none;display:inline"
       id="rect4500-1-1-6-3"
       width="96"
       height="96"
       x="847.92145"
       y="460.27411"
       inkscape:export-filename="/home/maks/Projects/Atlantis/html/icons/commit0.png"
       inkscape:export-xdpi="120"
       inkscape:export-ydpi="120" />
    <rect
       style="fill:#ff00ff;fill-opacity:1;stroke:none;display:inline"
       id="rect4500-1-1-6-1"
       width="96"
       height="96"
       x="848.00446"
       y="604.33661"
       inkscape:export-filename="/home/maks/Projects/Atlantis/html/icons/commit1.png"
       inkscape:export-xdpi="120"
       inkscape:export-ydpi="120" />
    <rect
       style="opacity:0.98000004;fill:#ff00ff;fill-opacity:1;stroke:none;display:inline"
       id="rect4500-16-1"
       width="96"
       height="96"
       x="80"
       y="748.375"
       inkscape:export-filename="/home/maks/Projects/Atlantis/html/icons/reset2.png"
       inkscape:export-xdpi="120"
       inkscape:export-ydpi="120" />
    <rect
       style="fill:#ff00ff;fill-opacity:1;stroke:none;display:inline"
       id="rect4500-1-9-5"
       width="96"
       height="96"
       x="272"
       y="748.375"
       inkscape:export-filename="/home/maks/Projects/Atlantis/html/icons/move2.png"
       inkscape:export-xdpi="120"
       inkscape:export-ydpi="120" />
    <rect
       style="fill:#ff00ff;fill-opacity:1;stroke:none;display:inline"
       id="rect4500-1-4-7-3"
       width="96"
       height="96"
       x="464"
       y="748.375" />
    <rect
       style="fill:#ff00ff;fill-opacity:1;stroke:none;display:inline"
       id="rect4500-1-1-6-5"
       width="96"
       height="96"
       x="656"
       y="748.375" />
    <rect
       style="fill:#ff00ff;fill-opacity:1;stroke:none;display:inline"
       id="rect4500-1-1-6-1-0"
       width="96"
       height="96"
       x="848"
       y="748.375"
       inkscape:export-filename="/home/maks/Projects/Atlantis/html/icons/commit2.png"
       inkscape:export-xdpi="120"
       inkscape:export-ydpi="120" />
    <rect
       style="fill:#ff00ff;fill-opacity:1;stroke:none"
       id="rect4500"
       width="96"
       height="96"
       x="80"
       y="460.36218"
       inkscape:export-filename="/home/maks/Projects/Atlantis/html/icons/reset0.png"
       inkscape:export-xdpi="120"
       inkscape:export-ydpi="120" />
    <rect
       style="fill:#ff00ff;fill-opacity:1;stroke:none;display:inline"
       id="rect4500-1"
       width="96"
       height="96"
       x="272"
       y="460.36218"
       inkscape:export-filename="/home/maks/Projects/Atlantis/html/icons/move0.png"
       inkscape:export-xdpi="120"
       inkscape:export-ydpi="120" />
    <rect
       style="fill:#ff00ff;fill-opacity:1;stroke:none;display:inline"
       id="rect4500-1-4"
       width="96"
       height="96"
       x="463.92145"
       y="460.27411"
       inkscape:export-filename="/home/maks/Projects/Atlantis/html/icons/explode0.png"
       inkscape:export-xdpi="120"
       inkscape:export-ydpi="120" />
    <rect
       style="fill:#ff00ff;fill-opacity:1;stroke:none;display:inline"
       id="rect4500-1-1"
       width="96"
       height="96"
       x="655.92145"
       y="460.27411"
       inkscape:export-filename="/home/maks/Projects/Atlantis/html/icons/grow0.png"
       inkscape:export-xdpi="120"
       inkscape:export-ydpi="120" />
  </g>
  <g
     inkscape:label="Layer 1"
     inkscape:groupmode="layer"
     id="layer1"
     style="display:inline">
    <path
       inkscape:connector-curvature="0"
       id="path3757-1-6"
       style="fill:none;stroke:#000000;stroke-width:1;stroke-linecap:square;stroke-linejoin:round;stroke-miterlimit:4;stroke-opacity:1;stroke-dashoffset:0"
       d="m 63.921445,444.28692 0,128 128.000005,0 0,-128 -128.000005,0 z" />
    <path
       inkscape:connector-curvature="0"
       id="path3757-8-6-0"
       style="fill:none;stroke:#000000;stroke-width:1;stroke-linecap:square;stroke-linejoin:round;stroke-miterlimit:4;stroke-opacity:1;stroke-dashoffset:0"
       d="m 255.92145,444.2741 0,128 128,0 0,-128 z"
       sodipodi:nodetypes="ccccc" />
    <path
       sodipodi:nodetypes="ccccc"
       d="m 447.92145,444.2741 0,128 128,0 0,-128 z"
       style="fill:none;stroke:#000000;stroke-width:1;stroke-linecap:square;stroke-linejoin:round;stroke-miterlimit:4;stroke-opacity:1;stroke-dashoffset:0"
       id="path3779-8-5"
       inkscape:connector-curvature="0" />
    <path
       sodipodi:nodetypes="ccccc"
       d="m 448,732.36218 0,128 128,0 0,-128 z"
       style="fill:none;stroke:#000000;stroke-width:1;stroke-linecap:square;stroke-linejoin:round;stroke-miterlimit:4;stroke-opacity:1;stroke-dashoffset:0"
       id="path3779"
       inkscape:connector-curvature="0" />
    <path
       transform="translate(192,-2.6171874e-6)"
       sodipodi:type="arc"
       style="fill:url(#radialGradient4082);fill-opacity:1;stroke:none"
       id="path3980-81"
       sodipodi:cx="320"
       sodipodi:cy="796.36218"
       sodipodi:rx="48"
       sodipodi:ry="48"
       d="m 368,796.36218 a 48,48 0 1 1 -96,0 48,48 0 1 1 96,0 z"
       inkscape:export-filename="/home/maks/Projects/Atlantis/html/icons/explode2.png"
       inkscape:export-xdpi="120"
       inkscape:export-ydpi="120" />
    <path
       transform="translate(384,-2.6171874e-6)"
       sodipodi:type="arc"
       style="fill:url(#radialGradient4045);fill-opacity:1;stroke:none"
       id="path3980-8"
       sodipodi:cx="320"
       sodipodi:cy="796.36218"
       sodipodi:rx="48"
       sodipodi:ry="48"
       d="m 368,796.36218 a 48,48 0 1 1 -96,0 48,48 0 1 1 96,0 z"
       inkscape:export-filename="/home/maks/Projects/Atlantis/html/icons/grow2.png"
       inkscape:export-xdpi="120"
       inkscape:export-ydpi="120" />
    <path
       sodipodi:type="arc"
       style="fill:url(#radialGradient3988);fill-opacity:1;stroke:none"
       id="path3980"
       sodipodi:cx="320"
       sodipodi:cy="796.36218"
       sodipodi:rx="48"
       sodipodi:ry="48"
       d="m 368,796.36218 a 48,48 0 1 1 -96,0 48,48 0 1 1 96,0 z" />
    <path
       id="path3757"
       style="fill:none;stroke:#000000;stroke-width:1;stroke-linecap:square;stroke-linejoin:round;stroke-miterlimit:4;stroke-opacity:1;stroke-dashoffset:0"
       d="m 64,732.375 0,128 128,0 0,-128 -128,0 z"
       inkscape:connector-curvature="0" />
    <path
       inkscape:connector-curvature="0"
       id="path3757-8"
       style="fill:none;stroke:#000000;stroke-width:1;stroke-linecap:square;stroke-linejoin:round;stroke-miterlimit:4;stroke-opacity:1;stroke-dashoffset:0"
       d="m 256,732.36218 0,128 128,0 0,-128 z"
       sodipodi:nodetypes="ccccc" />
    <path
       inkscape:connector-curvature="0"
       id="path3781"
       style="fill:none;stroke:#000000;stroke-width:1;stroke-linecap:square;stroke-linejoin:round;stroke-miterlimit:4;stroke-opacity:1;stroke-dashoffset:0"
       d="m 640,732.36218 0,128 128,0 0,-128 z"
       sodipodi:nodetypes="ccccc" />
    <path
       sodipodi:nodetypes="ccccc"
       d="m 832,732.36218 0,128 128,0 0,-128 z"
       style="fill:none;stroke:#000000;stroke-width:1;stroke-linecap:square;stroke-linejoin:round;stroke-miterlimit:4;stroke-opacity:1;stroke-dashoffset:0"
       id="path3783"
       inkscape:connector-curvature="0" />
    <text
       xml:space="preserve"
       style="font-size:12px;font-style:normal;font-weight:normal;text-align:center;line-height:125%;letter-spacing:0px;word-spacing:0px;text-anchor:middle;fill:#000000;fill-opacity:1;stroke:none;font-family:Sans"
       x="127.55762"
       y="889.68835"
       id="text3785"
       sodipodi:linespacing="125%"><tspan
         sodipodi:role="line"
         id="tspan3787"
         x="127.55762"
         y="889.68835">Reset</tspan></text>
    <text
       xml:space="preserve"
       style="font-size:12px;font-style:normal;font-weight:normal;text-align:center;line-height:125%;letter-spacing:0px;word-spacing:0px;text-anchor:middle;fill:#000000;fill-opacity:1;stroke:none;font-family:Sans"
       x="319.73047"
       y="889.68835"
       id="text3789"
       sodipodi:linespacing="125%"><tspan
         sodipodi:role="line"
         id="tspan3791"
         x="319.73047"
         y="889.68835">Move</tspan></text>
    <text
       xml:space="preserve"
       style="font-size:12px;font-style:normal;font-weight:normal;text-align:center;line-height:125%;letter-spacing:0px;word-spacing:0px;text-anchor:middle;fill:#000000;fill-opacity:1;stroke:none;font-family:Sans"
       x="511.73047"
       y="887.36218"
       id="text3793"
       sodipodi:linespacing="125%"><tspan
         sodipodi:role="line"
         id="tspan3795"
         x="511.73047"
         y="887.36218">Explode</tspan></text>
    <text
       xml:space="preserve"
       style="font-size:12px;font-style:normal;font-weight:normal;text-align:center;line-height:125%;letter-spacing:0px;word-spacing:0px;text-anchor:middle;fill:#000000;fill-opacity:1;stroke:none;font-family:Sans"
       x="703.91797"
       y="889.68835"
       id="text3797"
       sodipodi:linespacing="125%"><tspan
         sodipodi:role="line"
         id="tspan3799"
         x="703.91797"
         y="889.68835">Grow</tspan></text>
    <text
       xml:space="preserve"
       style="font-size:12px;font-style:normal;font-weight:normal;text-align:center;line-height:125%;letter-spacing:0px;word-spacing:0px;text-anchor:middle;fill:#000000;fill-opacity:1;stroke:none;font-family:Sans"
       x="895.80957"
       y="889.68835"
       id="text3797-4"
       sodipodi:linespacing="125%"><tspan
         sodipodi:role="line"
         id="tspan3799-9"
         x="895.80957"
         y="889.68835">Commit</tspan></text>
    <path
       style="fill:none;stroke:#000000;stroke-width:4;stroke-linecap:square;stroke-linejoin:round;stroke-miterlimit:4;stroke-opacity:1;stroke-dasharray:none;stroke-dashoffset:0"
       d="m 352,796.36218 c 0,17.67311 -14.32689,32 -32,32 -17.67311,0 -32,-14.32689 -32,-32 0,-17.67311 14.32689,-32 32,-32 17.67311,0 32,14.32689 32,32 z"
       id="path3878"
       inkscape:connector-curvature="0" />
    <path
       style="fill:none;stroke:#000000;stroke-width:4;stroke-linecap:butt;stroke-linejoin:round;stroke-miterlimit:4;stroke-opacity:1;stroke-dasharray:none"
       d="m 288.82143,788.36218 27.17857,0 0,-8 16,16 -16,16 0,-8 -27,0"
       id="path3880"
       inkscape:connector-curvature="0"
       sodipodi:nodetypes="ccccccc" />
    <path
       inkscape:connector-curvature="0"
       style="fill:none;stroke:#000000;stroke-width:3.87023783;stroke-linecap:square;stroke-linejoin:round;stroke-miterlimit:4;stroke-opacity:1;stroke-dasharray:none;stroke-dashoffset:0"
       d="m 537.089,813.3261 c -8.5499,14.80885 -27.4859,19.88274 -42.29474,11.33284 -14.80886,-8.54988 -19.88274,-27.48589 -11.33285,-42.29474 7.55117,-13.07901 23.20373,-18.56453 37.11328,-14.00654 l 4.99167,-8.6083 10.05518,5.80536 -4.94658,8.63797 c 10.89422,9.78103 13.95944,26.0644 6.41404,39.13341 z"
       id="path3878-2"
       sodipodi:nodetypes="sssccccs" />
    <path
       inkscape:connector-curvature="0"
       style="fill:none;stroke:#000000;stroke-width:4;stroke-linecap:square;stroke-linejoin:round;stroke-miterlimit:4;stroke-opacity:1;stroke-dasharray:none;stroke-dashoffset:0"
       d="m 736,796.36218 c 0,17.67311 -14.32689,32 -32,32 -17.67311,0 -32,-14.32689 -32,-32 0,-17.67311 14.32689,-32 32,-32 17.67311,0 32,14.32689 32,32 z"
       id="path3878-22" />
    <path
       style="fill:none;stroke:#000000;stroke-width:4;stroke-linecap:round;stroke-linejoin:miter;stroke-miterlimit:4;stroke-opacity:1;stroke-dasharray:none"
       d="m 706,828.36218 c -0.43882,-3.9781 -4.32456,-11.67544 2,-18 8,-8 14.48764,-15.00347 10,-22 -3.70615,-5.77814 -10.7323,-4.21272 -12,-12"
       id="path3931"
       inkscape:connector-curvature="0"
       sodipodi:nodetypes="cssc" />
    <path
       style="fill:none;stroke:#000000;stroke-width:1px;stroke-linecap:round;stroke-linejoin:miter;stroke-opacity:1"
       d="m 706,812.36218 c -2.64778,-0.58222 -3.70224,-2.07491 -4.11612,-4.11611 C 699.63246,804.99668 693.26807,797.5109 692,794.36218"
       id="path3933"
       inkscape:connector-curvature="0"
       sodipodi:nodetypes="ccc" />
    <path
       style="fill:none;stroke:#000000;stroke-width:1px;stroke-linecap:butt;stroke-linejoin:miter;stroke-opacity:1"
       d="m 701.76777,808.12995 c -5.31107,-0.99448 -8.56937,-3.82605 -9.75404,-7.63406 -0.58023,-1.86509 -0.0137,-2.13371 -0.24596,-6.19684 4.23223,2.06313 4.57474,1.07005 6.04431,1.74477 4.29146,1.97032 4.36124,5.05728 3.95569,12.08613 z"
       id="path3935"
       inkscape:connector-curvature="0"
       sodipodi:nodetypes="cscsc" />
    <path
       style="fill:none;stroke:#000000;stroke-width:1.93511891;stroke-linecap:butt;stroke-linejoin:miter;stroke-miterlimit:4;stroke-opacity:1;stroke-dasharray:none"
       d="m 530,762.36218 c 4,-6 9.85714,-8.89285 15.21536,-1.49903 3.49066,4.81678 -0.6628,13.29652 1.86429,19.2126 1.90238,4.45358 8.00671,7.74527 7.1836,13.45828 -0.8987,6.23765 -5.66529,10.9912 -4.9247,17.92642"
       id="path3945"
       inkscape:connector-curvature="0"
       sodipodi:nodetypes="csssc" />
    <path
       sodipodi:nodetypes="ccccc"
       d="m 448.00447,588.3366 0,128 128,0 0,-128 z"
       style="fill:none;stroke:#000000;stroke-width:1;stroke-linecap:square;stroke-linejoin:round;stroke-miterlimit:4;stroke-opacity:1;stroke-dashoffset:0"
       id="path3779-8"
       inkscape:connector-curvature="0" />
    <path
       transform="translate(192.00447,-144.02558)"
       sodipodi:type="arc"
       style="opacity:0.5;fill:url(#radialGradient3434);fill-opacity:1;stroke:none"
       id="path3980-81-8"
       sodipodi:cx="320"
       sodipodi:cy="796.36218"
       sodipodi:rx="48"
       sodipodi:ry="48"
       d="m 368,796.36218 a 48,48 0 1 1 -96,0 48,48 0 1 1 96,0 z" />
    <path
       transform="translate(384.00447,-144.02558)"
       sodipodi:type="arc"
       style="fill:url(#radialGradient3436);fill-opacity:1;stroke:none"
       id="path3980-8-7"
       sodipodi:cx="320"
       sodipodi:cy="796.36218"
       sodipodi:rx="48"
       sodipodi:ry="48"
       d="m 368,796.36218 a 48,48 0 1 1 -96,0 48,48 0 1 1 96,0 z" />
    <path
       transform="translate(0.0044701,-144.02558)"
       sodipodi:type="arc"
       style="opacity:0.5;fill:url(#radialGradient3438);fill-opacity:1;stroke:none"
       id="path3980-5"
       sodipodi:cx="320"
       sodipodi:cy="796.36218"
       sodipodi:rx="48"
       sodipodi:ry="48"
       d="m 368,796.36218 a 48,48 0 1 1 -96,0 48,48 0 1 1 96,0 z" />
    <path
       inkscape:connector-curvature="0"
       id="path3757-1"
       style="fill:none;stroke:#000000;stroke-width:1;stroke-linecap:square;stroke-linejoin:round;stroke-miterlimit:4;stroke-opacity:1;stroke-dashoffset:0;opacity:0.98"
       d="m 64.004469,588.34942 0,128 128.000001,0 0,-128 -128.000001,0 z" />
    <path
       inkscape:connector-curvature="0"
       id="path3757-8-6"
       style="fill:none;stroke:#000000;stroke-width:1;stroke-linecap:square;stroke-linejoin:round;stroke-miterlimit:4;stroke-opacity:1;stroke-dashoffset:0"
       d="m 256.00447,588.3366 0,128 128,0 0,-128 z"
       sodipodi:nodetypes="ccccc" />
    <path
       inkscape:connector-curvature="0"
       id="path3781-0"
       style="fill:none;stroke:#000000;stroke-width:1;stroke-linecap:square;stroke-linejoin:round;stroke-miterlimit:4;stroke-opacity:1;stroke-dashoffset:0"
       d="m 640.00447,588.3366 0,128 128,0 0,-128 z"
       sodipodi:nodetypes="ccccc" />
    <path
       sodipodi:nodetypes="ccccc"
       d="m 832.00447,588.3366 0,128 128.00001,0 0,-128 z"
       style="fill:none;stroke:#000000;stroke-width:1;stroke-linecap:square;stroke-linejoin:round;stroke-miterlimit:4;stroke-opacity:1;stroke-dashoffset:0"
       id="path3783-0"
       inkscape:connector-curvature="0" />
    <path
       inkscape:connector-curvature="0"
       style="fill:none;stroke:#000000;stroke-width:4;stroke-linecap:square;stroke-linejoin:round;stroke-miterlimit:4;stroke-opacity:1;stroke-dasharray:none;stroke-dashoffset:0"
       d="m 352.00447,652.3366 c 0,17.67311 -14.32689,32 -32,32 -17.67311,0 -32,-14.32689 -32,-32 0,-17.67311 14.32689,-32 32,-32 17.67311,0 32,14.32689 32,32 z"
       id="path3878-0" />
    <path
       style="fill:none;stroke:#000000;stroke-width:4;stroke-linecap:butt;stroke-linejoin:round;stroke-miterlimit:4;stroke-opacity:1;stroke-dasharray:none"
       d="m 288.8259,644.3366 27.17857,0 0,-8 16,16 -16,16 0,-8 -27,0"
       id="path3880-0"
       inkscape:connector-curvature="0"
       sodipodi:nodetypes="ccccccc" />
    <path
       inkscape:connector-curvature="0"
       style="fill:none;stroke:#000000;stroke-width:3.87023783;stroke-linecap:square;stroke-linejoin:round;stroke-miterlimit:4;stroke-opacity:1;stroke-dasharray:none;stroke-dashoffset:0"
       d="m 537.09347,669.30052 c -8.5499,14.80885 -27.4859,19.88274 -42.29474,11.33284 -14.80886,-8.54988 -19.88274,-27.48589 -11.33285,-42.29474 7.55117,-13.07901 23.20373,-18.56453 37.11328,-14.00654 l 4.99167,-8.6083 10.05518,5.80536 -4.94658,8.63797 c 10.89422,9.78103 13.95944,26.0644 6.41404,39.13341 z"
       id="path3878-2-3"
       sodipodi:nodetypes="sssccccs" />
    <path
       inkscape:connector-curvature="0"
       style="fill:none;stroke:#000000;stroke-width:4;stroke-linecap:square;stroke-linejoin:round;stroke-miterlimit:4;stroke-opacity:1;stroke-dasharray:none;stroke-dashoffset:0"
       d="m 736.00447,652.3366 c 0,17.67311 -14.32689,32 -32,32 -17.67311,0 -32,-14.32689 -32,-32 0,-17.67311 14.32689,-32 32,-32 17.67311,0 32,14.32689 32,32 z"
       id="path3878-22-4" />
    <path
       style="fill:none;stroke:#000000;stroke-width:4;stroke-linecap:round;stroke-linejoin:miter;stroke-miterlimit:4;stroke-opacity:1;stroke-dasharray:none"
       d="m 706.00447,684.3366 c -0.43882,-3.9781 -4.32456,-11.67544 2,-18 8,-8 14.48764,-15.00347 10,-22 -3.70615,-5.77814 -10.7323,-4.21272 -12,-12"
       id="path3931-1"
       inkscape:connector-curvature="0"
       sodipodi:nodetypes="cssc" />
    <path
       style="fill:none;stroke:#000000;stroke-width:1px;stroke-linecap:round;stroke-linejoin:miter;stroke-opacity:1"
       d="m 706.00447,668.3366 c -2.64778,-0.58222 -3.70224,-2.07491 -4.11612,-4.11611 -2.25142,-3.24939 -8.61581,-10.73517 -9.88388,-13.88389"
       id="path3933-7"
       inkscape:connector-curvature="0"
       sodipodi:nodetypes="ccc" />
    <path
       style="fill:none;stroke:#000000;stroke-width:1px;stroke-linecap:butt;stroke-linejoin:miter;stroke-opacity:1"
       d="m 701.77224,664.10437 c -5.31107,-0.99448 -8.56937,-3.82605 -9.75404,-7.63406 -0.58023,-1.86509 -0.0137,-2.13371 -0.24596,-6.19684 4.23223,2.06313 4.57474,1.07005 6.04431,1.74477 4.29146,1.97032 4.36124,5.05728 3.95569,12.08613 z"
       id="path3935-5"
       inkscape:connector-curvature="0"
       sodipodi:nodetypes="cscsc" />
    <path
       style="fill:none;stroke:#000000;stroke-width:1.93511891;stroke-linecap:butt;stroke-linejoin:miter;stroke-miterlimit:4;stroke-opacity:1;stroke-dasharray:none"
       d="m 530.00447,618.3366 c 4,-6 9.85714,-8.89285 15.21536,-1.49903 3.49066,4.81678 -0.6628,13.29652 1.86429,19.2126 1.90238,4.45358 8.00671,7.74527 7.1836,13.45828 -0.8987,6.23765 -5.66529,10.9912 -4.9247,17.92642"
       id="path3945-0"
       inkscape:connector-curvature="0"
       sodipodi:nodetypes="csssc" />
    <path
       style="font-size:medium;font-style:normal;font-variant:normal;font-weight:normal;font-stretch:normal;text-indent:0;text-align:start;text-decoration:none;line-height:normal;letter-spacing:normal;word-spacing:normal;text-transform:none;direction:ltr;block-progression:tb;writing-mode:lr-tb;text-anchor:start;baseline-shift:baseline;color:#000000;fill:none;stroke:#000000;stroke-width:4;stroke-miterlimit:4;stroke-opacity:1;stroke-dasharray:none;marker:none;visibility:visible;display:inline;overflow:visible;enable-background:accumulate;font-family:Sans;-inkscape-font-specification:Sans"
       d="m 924.06697,613.47081 c -16,18 -28,34 -36.25,54.26282 -5.53215,-8.42863 -11.75,-16.26282 -24.4375,-24.10657 l -11.3125,9.84375 c 18,10 28,24 36.25,37.73157 9.75,-23.73157 31.75,-49.73157 51.62501,-65.0625 z"
       id="path3965-2"
       inkscape:connector-curvature="0"
       sodipodi:nodetypes="ccccccc" />
    <path
       style="font-size:medium;font-style:normal;font-variant:normal;font-weight:normal;font-stretch:normal;text-indent:0;text-align:start;text-decoration:none;line-height:normal;letter-spacing:normal;word-spacing:normal;text-transform:none;direction:ltr;block-progression:tb;writing-mode:lr-tb;text-anchor:start;baseline-shift:baseline;color:#000000;fill:none;stroke:#000000;stroke-width:3.5999999;stroke-miterlimit:4;stroke-opacity:1;stroke-dasharray:none;marker:none;visibility:visible;display:inline;overflow:visible;enable-background:accumulate;font-family:Sans;-inkscape-font-specification:Sans"
       d="m 101.33704,626.96773 c 13.82661,-13.8266 36.77505,-13.50024 50.60165,0.32636 13.8266,13.8266 13.8266,36.44869 0,50.27529 -13.8266,13.8266 -36.44869,13.8266 -50.27529,0 l 9.54594,-9.54594 c 8.66759,8.6676 22.51582,8.6676 31.18341,0 8.6676,-8.66759 8.6676,-22.51582 0,-31.18341 -8.66759,-8.6676 -22.51582,-8.6676 -31.18341,0 l 10.49238,5.40121 -28.001427,2.54558 2.54558,-28.00142 z"
       id="path3973-6"
       inkscape:connector-curvature="0"
       sodipodi:nodetypes="cssccssccccc" />
    <path
       inkscape:connector-curvature="0"
       id="path3781-0-9"
       style="fill:none;stroke:#000000;stroke-width:1;stroke-linecap:square;stroke-linejoin:round;stroke-miterlimit:4;stroke-opacity:1;stroke-dashoffset:0"
       d="m 639.92145,444.2741 0,128 128,0 0,-128 z"
       sodipodi:nodetypes="ccccc" />
    <path
       sodipodi:nodetypes="ccccc"
       d="m 831.92145,444.2741 0,128 128.00001,0 0,-128 z"
       style="fill:none;stroke:#000000;stroke-width:1;stroke-linecap:square;stroke-linejoin:round;stroke-miterlimit:4;stroke-opacity:1;stroke-dashoffset:0"
       id="path3783-0-1"
       inkscape:connector-curvature="0" />
    <path
       inkscape:connector-curvature="0"
       style="fill:none;stroke:#808080;stroke-width:4;stroke-linecap:square;stroke-linejoin:round;stroke-miterlimit:4;stroke-opacity:1;stroke-dasharray:none;stroke-dashoffset:0"
       d="m 351.92145,508.2741 c 0,17.67311 -14.32689,32 -32,32 -17.67311,0 -32,-14.32689 -32,-32 0,-17.67311 14.32689,-32 32,-32 17.67311,0 32,14.32689 32,32 z"
       id="path3878-0-6" />
    <path
       style="fill:none;stroke:#808080;stroke-width:4;stroke-linecap:butt;stroke-linejoin:round;stroke-miterlimit:4;stroke-opacity:1;stroke-dasharray:none"
       d="m 288.74288,500.2741 27.17857,0 0,-8 16,16 -16,16 0,-8 -27,0"
       id="path3880-0-1"
       inkscape:connector-curvature="0"
       sodipodi:nodetypes="ccccccc" />
    <path
       inkscape:connector-curvature="0"
       style="fill:none;stroke:#808080;stroke-width:3.87023783;stroke-linecap:square;stroke-linejoin:round;stroke-miterlimit:4;stroke-opacity:1;stroke-dasharray:none;stroke-dashoffset:0"
       d="m 537.01045,525.23802 c -8.5499,14.80885 -27.4859,19.88274 -42.29474,11.33284 -14.80886,-8.54988 -19.88274,-27.48589 -11.33285,-42.29474 7.55117,-13.07901 23.20373,-18.56453 37.11328,-14.00654 l 4.99167,-8.6083 10.05518,5.80536 -4.94658,8.63797 c 10.89422,9.78103 13.95944,26.0644 6.41404,39.13341 z"
       id="path3878-2-3-0"
       sodipodi:nodetypes="sssccccs" />
    <path
       inkscape:connector-curvature="0"
       style="fill:none;stroke:#808080;stroke-width:4;stroke-linecap:square;stroke-linejoin:round;stroke-miterlimit:4;stroke-opacity:1;stroke-dasharray:none;stroke-dashoffset:0"
       d="m 735.92145,508.2741 c 0,17.67311 -14.32689,32 -32,32 -17.67311,0 -32,-14.32689 -32,-32 0,-17.67311 14.32689,-32 32,-32 17.67311,0 32,14.32689 32,32 z"
       id="path3878-22-4-4" />
    <path
       style="fill:none;stroke:#808080;stroke-width:4;stroke-linecap:round;stroke-linejoin:miter;stroke-miterlimit:4;stroke-opacity:1;stroke-dasharray:none"
       d="m 705.92145,540.2741 c -0.43882,-3.9781 -4.32456,-11.67544 2,-18 8,-8 14.48764,-15.00347 10,-22 -3.70615,-5.77814 -10.7323,-4.21272 -12,-12"
       id="path3931-1-3"
       inkscape:connector-curvature="0"
       sodipodi:nodetypes="cssc" />
    <path
       style="fill:none;stroke:#808080;stroke-width:1px;stroke-linecap:round;stroke-linejoin:miter;stroke-opacity:1"
       d="m 705.92145,524.2741 c -2.64778,-0.58222 -3.70224,-2.07491 -4.11612,-4.11611 -2.25142,-3.24939 -8.61581,-10.73517 -9.88388,-13.88389"
       id="path3933-7-3"
       inkscape:connector-curvature="0"
       sodipodi:nodetypes="ccc" />
    <path
       style="fill:none;stroke:#808080;stroke-width:1px;stroke-linecap:butt;stroke-linejoin:miter;stroke-opacity:1"
       d="m 701.68922,520.04187 c -5.31107,-0.99448 -8.56937,-3.82605 -9.75404,-7.63406 -0.58023,-1.86509 -0.0137,-2.13371 -0.24596,-6.19684 4.23223,2.06313 4.57474,1.07005 6.04431,1.74477 4.29146,1.97032 4.36124,5.05728 3.95569,12.08613 z"
       id="path3935-5-0"
       inkscape:connector-curvature="0"
       sodipodi:nodetypes="cscsc" />
    <path
       style="fill:none;stroke:#808080;stroke-width:1.93511891;stroke-linecap:butt;stroke-linejoin:miter;stroke-miterlimit:4;stroke-opacity:1;stroke-dasharray:none"
       d="m 529.92145,474.2741 c 4,-6 9.85714,-8.89285 15.21536,-1.49903 3.49066,4.81678 -0.6628,13.29652 1.86429,19.2126 1.90238,4.45358 8.00671,7.74527 7.1836,13.45828 -0.8987,6.23765 -5.66529,10.9912 -4.9247,17.92642"
       id="path3945-0-3"
       inkscape:connector-curvature="0"
       sodipodi:nodetypes="csssc" />
    <path
       style="font-size:medium;font-style:normal;font-variant:normal;font-weight:normal;font-stretch:normal;text-indent:0;text-align:start;text-decoration:none;line-height:normal;letter-spacing:normal;word-spacing:normal;text-transform:none;direction:ltr;block-progression:tb;writing-mode:lr-tb;text-anchor:start;baseline-shift:baseline;color:#000000;fill:#ffff00;stroke:#000000;stroke-width:4;stroke-miterlimit:4;stroke-opacity:1;stroke-dasharray:none;marker:none;visibility:visible;display:inline;overflow:visible;enable-background:accumulate;font-family:Sans;-inkscape-font-specification:Sans"
       d="m 924.0625,757.49639 c -16,18 -28,34 -36.25,54.26282 -5.53216,-8.42863 -11.75,-16.26282 -24.4375,-24.10657 l -11.3125,9.84375 c 18,10 28,24 36.25,37.73157 9.75,-23.73157 31.75,-49.73157 51.625,-65.0625 z"
       id="path3965-2-3"
       inkscape:connector-curvature="0"
       sodipodi:nodetypes="ccccccc" />
    <path
       style="font-size:medium;font-style:normal;font-variant:normal;font-weight:normal;font-stretch:normal;text-indent:0;text-align:start;text-decoration:none;line-height:normal;letter-spacing:normal;word-spacing:normal;text-transform:none;direction:ltr;block-progression:tb;writing-mode:lr-tb;text-anchor:start;baseline-shift:baseline;color:#000000;fill:none;stroke:#808080;stroke-width:4;stroke-miterlimit:4;stroke-opacity:1;stroke-dasharray:none;marker:none;visibility:visible;display:inline;overflow:visible;enable-background:accumulate;font-family:Sans;-inkscape-font-specification:Sans"
       d="m 923.98395,469.40832 c -16,18 -28,34 -36.25,54.26282 -5.53215,-8.42863 -11.75,-16.26282 -24.4375,-24.10657 l -11.3125,9.84375 c 18,10 28,24 36.25,37.73157 9.75,-23.73157 31.75,-49.73157 51.62501,-65.0625 z"
       id="path3965-2-4"
       inkscape:connector-curvature="0"
       sodipodi:nodetypes="ccccccc" />
    <path
       style="font-size:medium;font-style:normal;font-variant:normal;font-weight:normal;font-stretch:normal;text-indent:0;text-align:start;text-decoration:none;line-height:normal;letter-spacing:normal;word-spacing:normal;text-transform:none;direction:ltr;block-progression:tb;writing-mode:lr-tb;text-anchor:start;baseline-shift:baseline;color:#000000;fill:none;stroke:#808080;stroke-width:3.59999989999999981;stroke-miterlimit:4;stroke-opacity:1;stroke-dasharray:none;marker:none;visibility:visible;display:inline;overflow:visible;enable-background:accumulate;font-family:Sans;-inkscape-font-specification:Sans"
       d="m 101.25402,482.90523 c 13.82661,-13.8266 36.77505,-13.50024 50.60165,0.32636 13.8266,13.8266 13.8266,36.44869 0,50.27529 -13.8266,13.8266 -36.44869,13.8266 -50.27529,0 l 9.54594,-9.54594 c 8.66759,8.6676 22.51582,8.6676 31.18341,0 8.6676,-8.66759 8.6676,-22.51582 0,-31.18341 -8.66759,-8.6676 -22.51582,-8.6676 -31.18341,0 l 10.49238,5.40121 -28.001426,2.54558 2.54558,-28.00142 z"
       id="path3973-6-4"
       inkscape:connector-curvature="0"
       sodipodi:nodetypes="cssccssccccc" />
    <path
       style="font-size:medium;font-style:normal;font-variant:normal;font-weight:normal;font-stretch:normal;text-indent:0;text-align:start;text-decoration:none;line-height:normal;letter-spacing:normal;word-spacing:normal;text-transform:none;direction:ltr;block-progression:tb;writing-mode:lr-tb;text-anchor:start;baseline-shift:baseline;color:#000000;fill:#ffff00;stroke:#000000;stroke-width:3.59999989999999981;stroke-miterlimit:4;stroke-opacity:1;stroke-dasharray:none;marker:none;visibility:visible;display:inline;overflow:visible;enable-background:accumulate;font-family:Sans;-inkscape-font-specification:Sans"
       d="m 101.33257,770.99331 c 13.82661,-13.8266 36.77505,-13.50024 50.60165,0.32636 13.8266,13.8266 13.8266,36.44869 0,50.27529 -13.8266,13.8266 -36.44869,13.8266 -50.27529,0 l 9.54594,-9.54594 c 8.66759,8.6676 22.51582,8.6676 31.18341,0 8.6676,-8.66759 8.6676,-22.51582 0,-31.18341 -8.66759,-8.6676 -22.51582,-8.6676 -31.18341,0 l 10.49238,5.40121 -28.001423,2.54558 2.54558,-28.00142 z"
       id="path3973-6-7"
       inkscape:connector-curvature="0"
       sodipodi:nodetypes="cssccssccccc" />
  </g>
</svg>
